<svg xmlns="http://www.w3.org/2000/svg" xmlns:xlink="http://www.w3.org/1999/xlink" contentStyleType="text/css" height="373px" preserveAspectRatio="none" style="width:913px;height:373px;background:#FFFFFF;" version="1.1" viewBox="0 0 913 373" width="913px" zoomAndPan="magnify"><defs/><g><rect fill="#DDDDDD" height="361.8613" rx="5" ry="5" style="stroke:#F2F2F2;stroke-width:0.5;" width="600.7544" x="21" y="6"/><text fill="#000000" font-family="sans-serif" font-size="13" font-weight="bold" lengthAdjust="spacing" textLength="75.8354" x="283.4595" y="20.0283">Client Entity</text><rect fill="#DDDDDD" height="361.8613" rx="5" ry="5" style="stroke:#F2F2F2;stroke-width:0.5;" width="90.5254" x="816.6997" y="6"/><text fill="#000000" font-family="sans-serif" font-size="13" font-weight="bold" lengthAdjust="spacing" textLength="84.5254" x="819.6997" y="20.0283">Verifier Entity</text><line style="stroke:#000000;stroke-width:0.5;stroke-dasharray:5.0,5.0;" x1="59" x2="59" y1="60.9121" y2="331.2402"/><line style="stroke:#000000;stroke-width:0.5;stroke-dasharray:5.0,5.0;" x1="253.9556" x2="253.9556" y1="60.9121" y2="331.2402"/><line style="stroke:#000000;stroke-width:0.5;stroke-dasharray:5.0,5.0;" x1="404.686" x2="404.686" y1="60.9121" y2="331.2402"/><line style="stroke:#000000;stroke-width:0.5;stroke-dasharray:5.0,5.0;" x1="543.3687" x2="543.3687" y1="60.9121" y2="331.2402"/><line style="stroke:#000000;stroke-width:0.5;stroke-dasharray:5.0,5.0;" x1="861.79" x2="861.79" y1="60.9121" y2="331.2402"/><rect fill="#E4EBFA" height="32.6211" rx="5" ry="5" style="stroke:#066DFA;stroke-width:0.5;" width="49.793" x="35" y="27.291"/><text fill="#000000" font-family="sans-serif" font-size="14" lengthAdjust="spacing" textLength="35.793" x="42" y="49.3984">Client</text><rect fill="#E4EBFA" height="32.6211" rx="5" ry="5" style="stroke:#066DFA;stroke-width:0.5;" width="49.793" x="35" y="330.2402"/><text fill="#000000" font-family="sans-serif" font-size="14" lengthAdjust="spacing" textLength="35.793" x="42" y="352.3477">Client</text><rect fill="#E4EBFA" height="32.6211" rx="5" ry="5" style="stroke:#066DFA;stroke-width:0.5;" width="151.7305" x="178.9556" y="27.291"/><text fill="#000000" font-family="sans-serif" font-size="14" lengthAdjust="spacing" textLength="137.7305" x="185.9556" y="49.3984">Secure Token Service</text><rect fill="#E4EBFA" height="32.6211" rx="5" ry="5" style="stroke:#066DFA;stroke-width:0.5;" width="151.7305" x="178.9556" y="330.2402"/><text fill="#000000" font-family="sans-serif" font-size="14" lengthAdjust="spacing" textLength="137.7305" x="185.9556" y="352.3477">Secure Token Service</text><rect fill="#E4EBFA" height="32.6211" rx="5" ry="5" style="stroke:#066DFA;stroke-width:0.5;" width="88.6826" x="360.686" y="27.291"/><text fill="#000000" font-family="sans-serif" font-size="14" lengthAdjust="spacing" textLength="74.6826" x="367.686" y="49.3984">DID Service</text><rect fill="#E4EBFA" height="32.6211" rx="5" ry="5" style="stroke:#066DFA;stroke-width:0.5;" width="88.6826" x="360.686" y="330.2402"/><text fill="#000000" font-family="sans-serif" font-size="14" lengthAdjust="spacing" textLength="74.6826" x="367.686" y="352.3477">DID Service</text><rect fill="#E4EBFA" height="32.6211" rx="5" ry="5" style="stroke:#066DFA;stroke-width:0.5;" width="128.3857" x="479.3687" y="27.291"/><text fill="#000000" font-family="sans-serif" font-size="14" lengthAdjust="spacing" textLength="114.3857" x="486.3687" y="49.3984">Credential Service</text><rect fill="#E4EBFA" height="32.6211" rx="5" ry="5" style="stroke:#066DFA;stroke-width:0.5;" width="128.3857" x="479.3687" y="330.2402"/><text fill="#000000" font-family="sans-serif" font-size="14" lengthAdjust="spacing" textLength="114.3857" x="486.3687" y="352.3477">Credential Service</text><rect fill="#E4EBFA" height="32.6211" rx="5" ry="5" style="stroke:#066DFA;stroke-width:0.5;" width="58.3447" x="832.79" y="27.291"/><text fill="#000000" font-family="sans-serif" font-size="14" lengthAdjust="spacing" textLength="44.3447" x="839.79" y="49.3984">Verifier</text><rect fill="#E4EBFA" height="32.6211" rx="5" ry="5" style="stroke:#066DFA;stroke-width:0.5;" width="58.3447" x="832.79" y="330.2402"/><text fill="#000000" font-family="sans-serif" font-size="14" lengthAdjust="spacing" textLength="44.3447" x="839.79" y="352.3477">Verifier</text><polygon fill="#000000" points="242.8208,90.2031,252.8208,94.2031,242.8208,98.2031,246.8208,94.2031" style="stroke:#000000;stroke-width:1.0;"/><line style="stroke:#000000;stroke-width:1.0;" x1="59.8965" x2="248.8208" y1="94.2031" y2="94.2031"/><text fill="#000000" font-family="sans-serif" font-size="13" font-weight="bold" lengthAdjust="spacing" textLength="7.23" x="66.8965" y="88.9404">1</text><text fill="#000000" font-family="sans-serif" font-size="13" lengthAdjust="spacing" textLength="43.3608" x="78.1265" y="88.9404">request</text><polygon fill="#000000" points="70.8965,121.4941,60.8965,125.4941,70.8965,129.4941,66.8965,125.4941" style="stroke:#000000;stroke-width:1.0;"/><line style="stroke:#000000;stroke-width:1.0;" x1="64.8965" x2="253.8208" y1="125.4941" y2="125.4941"/><text fill="#000000" font-family="sans-serif" font-size="13" font-weight="bold" lengthAdjust="spacing" textLength="7.23" x="76.8965" y="120.2314">2</text><text fill="#000000" font-family="sans-serif" font-size="13" lengthAdjust="spacing" textLength="159.6943" x="88.1265" y="120.2314">response incl. access token</text><polygon fill="#000000" points="849.9624,152.7852,859.9624,156.7852,849.9624,160.7852,853.9624,156.7852" style="stroke:#000000;stroke-width:1.0;"/><line style="stroke:#000000;stroke-width:1.0;" x1="59.8965" x2="855.9624" y1="156.7852" y2="156.7852"/><text fill="#000000" font-family="sans-serif" font-size="13" font-weight="bold" lengthAdjust="spacing" textLength="7.23" x="66.8965" y="151.5225">3</text><text fill="#000000" font-family="sans-serif" font-size="13" lengthAdjust="spacing" textLength="281.0806" x="78.1265" y="151.5225">request w/ self-issued id token incl. access token</text><polygon fill="#000000" points="416.0273,184.0762,406.0273,188.0762,416.0273,192.0762,412.0273,188.0762" style="stroke:#000000;stroke-width:1.0;"/><line style="stroke:#000000;stroke-width:1.0;" x1="410.0273" x2="860.9624" y1="188.0762" y2="188.0762"/><text fill="#000000" font-family="sans-serif" font-size="13" font-weight="bold" lengthAdjust="spacing" textLength="7.23" x="422.0273" y="182.8135">4</text><text fill="#000000" font-family="sans-serif" font-size="13" lengthAdjust="spacing" textLength="67.9072" x="433.2573" y="182.8135">resolve DID</text><polygon fill="#000000" points="849.9624,215.3672,859.9624,219.3672,849.9624,223.3672,853.9624,219.3672" style="stroke:#000000;stroke-width:1.0;"/><line style="stroke:#000000;stroke-width:1.0;" x1="405.0273" x2="855.9624" y1="219.3672" y2="219.3672"/><text fill="#000000" font-family="sans-serif" font-size="13" font-weight="bold" lengthAdjust="spacing" textLength="7.23" x="412.0273" y="214.1045">5</text><text fill="#000000" font-family="sans-serif" font-size="13" lengthAdjust="spacing" textLength="140.1816" x="423.2573" y="214.1045">DID document response</text><polygon fill="#000000" points="554.5615,246.6582,544.5615,250.6582,554.5615,254.6582,550.5615,250.6582" style="stroke:#000000;stroke-width:1.0;"/><line style="stroke:#000000;stroke-width:1.0;" x1="548.5615" x2="860.9624" y1="250.6582" y2="250.6582"/><text fill="#000000" font-family="sans-serif" font-size="13" font-weight="bold" lengthAdjust="spacing" textLength="7.23" x="560.5615" y="245.3955">6</text><text fill="#000000" font-family="sans-serif" font-size="13" lengthAdjust="spacing" textLength="281.0806" x="571.7915" y="245.3955">request w/ self-issued id token incl. access token</text><polygon fill="#000000" points="849.9624,277.9492,859.9624,281.9492,849.9624,285.9492,853.9624,281.9492" style="stroke:#000000;stroke-width:1.0;"/><line style="stroke:#000000;stroke-width:1.0;" x1="543.5615" x2="855.9624" y1="281.9492" y2="281.9492"/><text fill="#000000" font-family="sans-serif" font-size="13" font-weight="bold" lengthAdjust="spacing" textLength="7.23" x="550.5615" y="276.6865">7</text><text fill="#000000" font-family="sans-serif" font-size="13" lengthAdjust="spacing" textLength="74.4326" x="561.7915" y="276.6865">VP response</text><polygon fill="#000000" points="70.8965,309.2402,60.8965,313.2402,70.8965,317.2402,66.8965,313.2402" style="stroke:#000000;stroke-width:1.0;"/><line style="stroke:#000000;stroke-width:1.0;" x1="64.8965" x2="860.9624" y1="313.2402" y2="313.2402"/><text fill="#000000" font-family="sans-serif" font-size="13" font-weight="bold" lengthAdjust="spacing" textLength="7.23" x="76.8965" y="307.9775">8</text><text fill="#000000" font-family="sans-serif" font-size="13" lengthAdjust="spacing" textLength="53.479" x="88.1265" y="307.9775">response</text><!--SRC=[bP0nJyCm48Lt_ufhzeGT8HQ7WGt9LVQhVQqi73lux4B-FN6I4eAwCFhT- -wUts68UEaH78uX9-2U4deKuc2zTjaG68kNY7t3QNJ4pP1x9mJc57pkJnI5E8KlgAIpv1Ey-6JJM8a1OxBQ3ZXfwwm2P93xYIAT8y4nl9C7HV5gDSq-TLHxP_lQxWpjdxcCPAOZ5jtE9fKWRs2AkERiADgpfNW_wMqwizs6IgYVIwP7YFIHYPEO7aMJHU4XU2OeXJM0MXCpfFAb5Un-CFXy02PthYrp9WFMBCPxRAlWgLvO3kvAC5LGn6LXwSC4dVlI-Ys2a1lpxtkoh9xGxktNlYt2B7m3]--></g></svg>