<svg width="556" height="560" viewBox="0 0 556 560" fill="none" xmlns="http://www.w3.org/2000/svg">
<rect x="434" width="120" height="302" rx="10" fill="#E4EBFA" fill-opacity="0.4"/>
<rect x="435" y="1" width="118" height="300" rx="9" stroke="#006EF9" stroke-opacity="0.4" stroke-width="2"/>
<text fill="black" xml:space="preserve" style="white-space: pre" font-family="Inter" font-size="14" font-weight="bold" letter-spacing="0em"><tspan x="468.784" y="21.5909">Verifier</tspan></text>
<rect x="448.5" y="57.5" width="92" height="59" rx="9.5" fill="white" stroke="black"/>
<text fill="black" xml:space="preserve" style="white-space: pre" font-family="Inter" font-size="12" font-weight="bold" letter-spacing="0em"><tspan x="462.839" y="85.8636">Participant </tspan><tspan x="477.417" y="100.864">Agent</tspan></text>
<ellipse cx="471.213" cy="118.213" rx="76.7833" ry="42.3118" transform="rotate(45 471.213 118.213)" fill="#16DB68" fill-opacity="0.4"/>
<path d="M514 342L518.33 334.5L509.67 334.5L514 342ZM514 278.744L513.25 278.744L514 278.744ZM513.25 117L513.25 278.744L514.75 278.744L514.75 117L513.25 117ZM513.25 278.744L513.25 335.25L514.75 335.25L514.75 278.744L513.25 278.744Z" fill="black"/>
<text fill="#221F1F" xml:space="preserve" style="white-space: pre" font-family="Inter" font-size="10" font-style="italic" letter-spacing="0em"><tspan x="454" y="258.636">Policy-to-</tspan><tspan x="454" y="270.636">credential </tspan><tspan x="454" y="282.636">mappings</tspan></text>
<text fill="#006EF9" xml:space="preserve" style="white-space: pre" font-family="Inter" font-size="12" font-style="italic" font-weight="bold" letter-spacing="0em"><tspan x="429.051" y="133.864">Consent</tspan></text>
<rect x="166" y="471" width="222" height="84" rx="9" fill="#E4EBFA" stroke="#006EF9" stroke-width="2"/>
<text fill="black" xml:space="preserve" style="white-space: pre" font-family="Inter" font-size="14" font-weight="bold" letter-spacing="0em"><tspan x="197.149" y="495.591">Dataspace Governance&#10;</tspan><tspan x="244.352" y="512.591">Authority</tspan></text>
<text fill="#221F1F" xml:space="preserve" style="white-space: pre" font-family="Inter" font-size="10" font-style="italic" letter-spacing="0em"><tspan x="202.519" y="535.636">Defines Policies and Credentials</tspan></text>
<text fill="#221F1F" xml:space="preserve" style="white-space: pre" font-family="Inter" font-size="10" font-style="italic" letter-spacing="0em"><tspan x="292" y="428.636">Register policies </tspan><tspan x="292" y="440.636">and credential </tspan><tspan x="292" y="452.636">mappings</tspan></text>
<path d="M277 402L272.67 409.5H281.33L277 402ZM277.75 469V408.75H276.25V469H277.75Z" fill="black"/>
<rect x="1" y="343" width="552" height="58" rx="9" fill="#E4EBFA" stroke="#006EF9" stroke-width="2"/>
<text fill="black" xml:space="preserve" style="white-space: pre" font-family="Inter" font-size="14" font-weight="bold" letter-spacing="0em"><tspan x="196.069" y="367.591">Verifiable Data Registry</tspan></text>
<text fill="#221F1F" xml:space="preserve" style="white-space: pre" font-family="Inter" font-size="10" font-style="italic" letter-spacing="0em"><tspan x="196.614" y="386.636">Maintains identifiers and schemas</tspan></text>
<rect width="387" height="302" rx="10" fill="#E4EBFA" fill-opacity="0.4"/>
<rect x="1" y="1" width="385" height="300" rx="9" stroke="#006EF9" stroke-opacity="0.4" stroke-width="2"/>
<rect x="206" y="190" width="91" height="58" rx="9" fill="#E4EBFA" stroke="#006EF9" stroke-width="2"/>
<text fill="black" xml:space="preserve" style="white-space: pre" font-family="Inter" font-size="12" font-weight="bold" letter-spacing="0em"><tspan x="221.585" y="216.864">Credential&#10;</tspan><tspan x="229.87" y="231.864">Service</tspan></text>
<rect x="20.5" y="117.5" width="67.0083" height="59" rx="9.5" fill="white" stroke="black"/>
<text fill="black" xml:space="preserve" style="white-space: pre" font-family="Inter" font-size="12" font-weight="bold" letter-spacing="0em"><tspan x="42.3322" y="149.864">STS</tspan></text>
<rect x="158.5" y="33.5" width="161.75" height="111" rx="9.5" fill="white" stroke="black"/>
<ellipse cx="240.5" cy="91" rx="105.5" ry="58" fill="#16DB68" fill-opacity="0.4"/>
<path d="M174 91L181.5 95.3301L181.5 86.6699L174 91ZM304 90.25L180.75 90.25L180.75 91.75L304 91.75L304 90.25Z" fill="#006EF9"/>
<text fill="#006EF9" xml:space="preserve" style="white-space: pre" font-family="Inter" font-size="12" font-style="italic" font-weight="bold" letter-spacing="0em"><tspan x="214.051" y="112.864">Consent</tspan></text>
<text fill="black" xml:space="preserve" style="white-space: pre" font-family="Inter" font-size="12" font-weight="bold" letter-spacing="0em"><tspan x="189.567" y="55.5306">Participant Agent</tspan></text>
<text fill="black" xml:space="preserve" style="white-space: pre" font-family="Inter" font-size="14" font-weight="bold" letter-spacing="0em"><tspan x="204.279" y="20.5909">Holder</tspan></text>
<path d="M148 109L139.343 108.779L143.48 116.387L148 109ZM91.3583 140.659L142.429 112.884L141.712 111.566L90.6417 139.341L91.3583 140.659Z" fill="black"/>
<text fill="#221F1F" xml:space="preserve" style="white-space: pre" font-family="Inter" font-size="10" font-style="italic" letter-spacing="0em"><tspan x="64" y="79.6364">Self-Issued </tspan><tspan x="64" y="91.6364">ID token with </tspan><tspan x="64" y="103.636">access token</tspan></text>
<path d="M92 168L96.523 175L100.964 167.565L92 168ZM205.385 222.356L98.4539 170.31L97.6846 171.598L204.615 223.644L205.385 222.356Z" fill="black"/>
<text fill="#221F1F" xml:space="preserve" style="white-space: pre" font-family="Inter" font-size="10" font-style="italic" letter-spacing="0em"><tspan x="70" y="205.636">Verify token</tspan></text>
<text fill="#221F1F" xml:space="preserve" style="white-space: pre" font-family="Inter" font-size="10" font-style="italic" letter-spacing="0em"><tspan x="130" y="265.636">Policy-to-</tspan><tspan x="130" y="277.636">credential </tspan><tspan x="130" y="289.636">mappings</tspan></text>
<path d="M186 342L190.33 334.5H181.67L186 342ZM186 162.785V162.035H185.25V162.785H186ZM246 162.785V163.535H246.75V162.785H246ZM185.25 162.785V335.25H186.75V162.785H185.25ZM245.25 145V162.785H246.75V145H245.25ZM246 162.035H186V163.535H246V162.035Z" fill="black"/>
<path d="M297.978 221.059L312.792 229.755L313.151 212.43L297.978 221.059ZM494.556 117L485.903 132.165L503.22 131.838L494.556 117ZM494.597 221.5L494.566 223L496.097 223.004L496.096 221.471L494.597 221.5ZM311.441 222.589L494.566 223L494.628 219.999L311.503 219.588L311.441 222.589ZM496.096 221.471L496.061 130.473L493.061 130.53L493.097 221.528L496.096 221.471Z" fill="#006EF9"/>
<text fill="#006EF9" xml:space="preserve" style="white-space: pre" font-family="Inter" font-size="12" font-weight="bold" letter-spacing="0em"><tspan x="363.197" y="206.864">DCP Presentation</tspan></text>
<path d="M507 142L494.5 140L482 142L481 155.5L482 165L494.5 171.5L506 164L508 155.5L507 148L507 142Z" fill="white"/>
<path fill-rule="evenodd" clip-rule="evenodd" d="M494.5 138L479 141.465L479 156.747C479 162.748 483.047 169.733 493.962 173.799L494.5 174L495.038 173.799C505.953 169.733 510 162.748 510 156.747L510 141.465L494.5 138ZM506.9 143.966L506.9 156.747C506.9 161.059 504.077 166.929 494.5 170.67C484.923 166.929 482.1 161.059 482.1 156.747L482.1 143.966L494.5 141.194L506.9 143.966Z" fill="black"/>
<path d="M349 209L336.5 207L324 209L323 222.5L324 232L336.5 238.5L348 231L350 222.5L349 215L349 209Z" fill="white"/>
<path fill-rule="evenodd" clip-rule="evenodd" d="M336.5 205L321 208.465L321 223.747C321 229.748 325.047 236.733 335.962 240.799L336.5 241L337.038 240.799C347.953 236.733 352 229.748 352 223.747L352 208.465L336.5 205ZM348.9 210.966L348.9 223.747C348.9 228.059 346.077 233.929 336.5 237.67C326.923 233.929 324.1 228.059 324.1 223.747L324.1 210.966L336.5 208.194L348.9 210.966Z" fill="black"/>
<path d="M173 78L160.5 76L148 78L147 91.5L148 101L160.5 107.5L172 100L174 91.5L173 84L173 78Z" fill="white"/>
<path fill-rule="evenodd" clip-rule="evenodd" d="M160.5 74L145 77.4646L145 92.7468C145 98.7484 149.047 105.733 159.962 109.799L160.5 110L161.038 109.799C171.953 105.733 176 98.7484 176 92.7468L176 77.4646L160.5 74ZM172.9 79.9658L172.9 92.7468C172.9 97.0592 170.077 102.929 160.5 106.67C150.923 102.929 148.1 97.0592 148.1 92.7468L148.1 79.9658L160.5 77.1942L172.9 79.9658Z" fill="black"/>
<path d="M333 93L340.454 97.4088L340.545 88.7491L333 93ZM428 94L420.546 89.5912L420.455 98.2509L428 94ZM339.742 93.821L421.242 94.6789L421.258 93.179L339.758 92.3211L339.742 93.821Z" fill="black"/>
<text fill="black" xml:space="preserve" style="white-space: pre" font-family="Inter" font-size="12" font-weight="bold" letter-spacing="0em"><tspan x="352.588" y="68.8636">Dataspace </tspan><tspan x="359.32" y="83.8636">Protocol</tspan></text>
<path d="M304 88.8889C304 82.813 304 79.7751 305.888 77.8875C307.775 76 310.813 76 316.889 76H320.111C326.187 76 329.225 76 331.112 77.8875C333 79.7751 333 82.813 333 88.8889V95.3333C333 101.409 333 104.447 331.112 106.335C329.225 108.222 326.187 108.222 320.111 108.222H316.889C310.813 108.222 307.775 108.222 305.888 106.335C304 104.447 304 101.409 304 95.3333V88.8889Z" fill="white" stroke="#1C274C" stroke-width="2"/>
<path d="M312.056 88.8887H324.945H312.056Z" fill="white"/>
<path d="M312.056 88.8887H324.945" stroke="#1C274C" stroke-width="2" stroke-linecap="round"/>
<path d="M312.056 95.333H320.111H312.056Z" fill="white"/>
<path d="M312.056 95.333H320.111" stroke="#1C274C" stroke-width="2" stroke-linecap="round"/>
<path d="M429 87.8889C429 81.813 429 78.7751 430.888 76.8875C432.775 75 435.813 75 441.889 75H445.111C451.187 75 454.225 75 456.112 76.8875C458 78.7751 458 81.813 458 87.8889V94.3333C458 100.409 458 103.447 456.112 105.335C454.225 107.222 451.187 107.222 445.111 107.222H441.889C435.813 107.222 432.775 107.222 430.888 105.335C429 103.447 429 100.409 429 94.3333V87.8889Z" fill="white" stroke="#1C274C" stroke-width="2"/>
<path d="M437.056 87.8887H449.945H437.056Z" fill="white"/>
<path d="M437.056 87.8887H449.945" stroke="#1C274C" stroke-width="2" stroke-linecap="round"/>
<path d="M437.056 94.333H445.111H437.056Z" fill="white"/>
<path d="M437.056 94.333H445.111" stroke="#1C274C" stroke-width="2" stroke-linecap="round"/>
<path d="M479.442 148.043L471.765 144.037L472.133 152.689L479.442 148.043ZM441.922 108.463C440.859 125.167 442.907 135.478 448.173 141.547C453.465 147.645 461.814 149.248 472.71 149.081L472.687 147.581C461.853 147.748 454.127 146.119 449.306 140.563C444.459 134.978 442.359 125.212 443.419 108.558L441.922 108.463Z" fill="#006EF9"/>
<rect x="434" y="473" width="107" height="79" rx="5" fill="#E6E6E6"/>
<path d="M463.555 521.222L456.611 520.111L449.666 521.222L449.111 528.722L449.666 534L456.611 537.611L463 533.445L464.111 528.722L463.555 524.556L463.555 521.222Z" fill="white"/>
<path fill-rule="evenodd" clip-rule="evenodd" d="M456.611 519L448 520.925L448 529.415C448 532.749 450.248 536.63 456.312 538.889L456.611 539L456.91 538.889C462.974 536.63 465.222 532.749 465.222 529.415L465.222 520.925L456.611 519ZM463.5 522.314L463.5 529.415C463.5 531.811 461.932 535.072 456.611 537.15C451.29 535.072 449.722 531.811 449.722 529.415L449.722 522.314L456.611 520.775L463.5 522.314Z" fill="black"/>
<text fill="#221F1F" xml:space="preserve" style="white-space: pre" font-family="Inter" font-size="10" letter-spacing="0em"><tspan x="472" y="526.636">Verifiable </tspan><tspan x="472" y="538.636">Credential</tspan></text>
<path d="M448 494.689C448 491.064 448 489.252 449.126 488.126C450.252 487 452.064 487 455.689 487H457.611C461.236 487 463.048 487 464.174 488.126C465.3 489.252 465.3 491.064 465.3 494.689V498.533C465.3 502.158 465.3 503.97 464.174 505.096C463.048 506.222 461.236 506.222 457.611 506.222H455.689C452.064 506.222 450.252 506.222 449.126 505.096C448 503.97 448 502.158 448 498.533V494.689Z" fill="white" stroke="#1C274C" stroke-width="2"/>
<path d="M452.806 494.688H460.495H452.806Z" fill="white"/>
<path d="M452.806 494.688H460.495" stroke="#1C274C" stroke-width="2" stroke-linecap="round"/>
<path d="M452.806 498.533H457.611H452.806Z" fill="white"/>
<path d="M452.806 498.533H457.611" stroke="#1C274C" stroke-width="2" stroke-linecap="round"/>
<text fill="#221F1F" xml:space="preserve" style="white-space: pre" font-family="Inter" font-size="10" letter-spacing="0em"><tspan x="472" y="499.636">Policy</tspan></text>
</svg>
