<svg width="648" height="174" viewBox="0 0 648 174" fill="none" xmlns="http://www.w3.org/2000/svg">
<rect x="140" y="115" width="363" height="58" rx="9" fill="#E4EBFA" stroke="#006EF9" stroke-width="2"/>
<text fill="black" xml:space="preserve" style="white-space: pre" font-family="Inter" font-size="14" font-weight="bold" letter-spacing="0em"><tspan x="240.569" y="139.591">Verifiable Data Registry</tspan></text>
<text fill="#221F1F" xml:space="preserve" style="white-space: pre" font-family="Inter" font-size="10" font-style="italic" letter-spacing="0em"><tspan x="241.114" y="158.636">Maintains identifiers and schemas</tspan></text>
<text fill="#221F1F" xml:space="preserve" style="white-space: pre" font-family="Inter" font-size="10" font-style="italic" letter-spacing="0em"><tspan x="558" y="80.6364">Verify identifiers </tspan><tspan x="558" y="92.6364">and use schemas</tspan></text>
<path d="M504 143L511.5 138.67L511.5 147.33L504 143ZM553 143L553.75 143L553.75 143.75L553 143.75L553 143ZM553.75 60L553.75 143L552.25 143L552.25 60L553.75 60ZM553 143.75L510.75 143.75L510.75 142.25L553 142.25L553 143.75Z" fill="black"/>
<rect x="493" y="1" width="118" height="58" rx="9" fill="#E4EBFA" stroke="#006EF9" stroke-width="2"/>
<text fill="black" xml:space="preserve" style="white-space: pre" font-family="Inter" font-size="14" font-weight="bold" letter-spacing="0em"><tspan x="526.784" y="20.5909">Verifier</tspan></text>
<text fill="#221F1F" xml:space="preserve" style="white-space: pre" font-family="Inter" font-size="10" font-style="italic" letter-spacing="0em"><tspan x="523.514" y="36.6364">Verifies VCs</tspan></text>
<text fill="#221F1F" xml:space="preserve" style="white-space: pre" font-family="Inter" font-size="10" font-style="italic" letter-spacing="0em"><tspan x="330" y="80.6364">Register identifiers </tspan><tspan x="330" y="92.6364">and use schemas</tspan></text>
<path d="M324.75 114L329.08 106.5H320.42L324.75 114ZM324 60V107.25H325.5V60H324Z" fill="black"/>
<rect x="265" y="1" width="118" height="58" rx="9" fill="#E4EBFA" stroke="#006EF9" stroke-width="2"/>
<text fill="black" xml:space="preserve" style="white-space: pre" font-family="Inter" font-size="14" font-weight="bold" letter-spacing="0em"><tspan x="301.279" y="20.5909">Holder</tspan></text>
<text fill="#221F1F" xml:space="preserve" style="white-space: pre" font-family="Inter" font-size="10" font-style="italic" letter-spacing="0em"><tspan x="293.121" y="35.6364">Acquires and </tspan><tspan x="292.54" y="47.6364">presents VCs</tspan></text>
<text fill="#221F1F" xml:space="preserve" style="white-space: pre" font-family="Inter" font-size="10" font-style="italic" letter-spacing="0em"><tspan x="0" y="86.6364">Verify identifiers </tspan><tspan x="0" y="98.6364">and use schemas</tspan></text>
<path d="M139 143L131.5 138.67L131.5 147.33L139 143ZM90 143L89.25 143L89.25 143.75L90 143.75L90 143ZM89.25 60L89.25 143L90.75 143L90.75 60L89.25 60ZM90 143.75L132.25 143.75L132.25 142.25L90 142.25L90 143.75Z" fill="black"/>
<text fill="#221F1F" xml:space="preserve" style="white-space: pre" font-family="Inter" font-size="10" font-style="italic" letter-spacing="0em"><tspan x="162" y="21.6364">Issue credentials</tspan></text>
<path d="M256 34L248.5 29.6699V38.3301L256 34ZM162 34.75H249.25V33.25H162V34.75Z" fill="black"/>
<text fill="#221F1F" xml:space="preserve" style="white-space: pre" font-family="Inter" font-size="10" font-style="italic" letter-spacing="0em"><tspan x="390" y="21.6364">Present credentials</tspan></text>
<path d="M487 32L479.5 27.6699V36.3301L487 32ZM390 32.75H480.25V31.25H390V32.75Z" fill="black"/>
<rect x="33" y="1" width="118" height="58" rx="9" fill="#E4EBFA" stroke="#006EF9" stroke-width="2"/>
<text fill="black" xml:space="preserve" style="white-space: pre" font-family="Inter" font-size="14" font-weight="bold" letter-spacing="0em"><tspan x="70.9744" y="20.5909">Issuer</tspan></text>
<text fill="#221F1F" xml:space="preserve" style="white-space: pre" font-family="Inter" font-size="10" font-style="italic" letter-spacing="0em"><tspan x="66.3504" y="39.6364">Issues VCs</tspan></text>
</svg>
