<svg xmlns="http://www.w3.org/2000/svg" xmlns:xlink="http://www.w3.org/1999/xlink" contentStyleType="text/css" height="421px" preserveAspectRatio="none" style="width:864px;height:421px;background:#FFFFFF;" version="1.1" viewBox="0 0 864 421" width="864px" zoomAndPan="magnify"><defs/><g><rect fill="#DDDDDD" height="409.4434" rx="5" ry="5" style="stroke:#F2F2F2;stroke-width:0.5;" width="600.7544" x="21" y="6"/><text fill="#000000" font-family="sans-serif" font-size="13" font-weight="bold" lengthAdjust="spacing" textLength="75.8354" x="283.4595" y="20.0283">Client Entity</text><rect fill="#DDDDDD" height="409.4434" rx="5" ry="5" style="stroke:#F2F2F2;stroke-width:0.5;" width="130.6963" x="727.3149" y="6"/><text fill="#000000" font-family="sans-serif" font-size="13" font-weight="bold" lengthAdjust="spacing" textLength="78.0254" x="753.6504" y="20.0283">Issuer Entity</text><line style="stroke:#000000;stroke-width:0.5;stroke-dasharray:5.0,5.0;" x1="59" x2="59" y1="60.9121" y2="378.8223"/><line style="stroke:#000000;stroke-width:0.5;stroke-dasharray:5.0,5.0;" x1="253.9556" x2="253.9556" y1="60.9121" y2="378.8223"/><line style="stroke:#000000;stroke-width:0.5;stroke-dasharray:5.0,5.0;" x1="404.686" x2="404.686" y1="60.9121" y2="378.8223"/><line style="stroke:#000000;stroke-width:0.5;stroke-dasharray:5.0,5.0;" x1="543.3687" x2="543.3687" y1="60.9121" y2="378.8223"/><line style="stroke:#000000;stroke-width:0.5;stroke-dasharray:5.0,5.0;" x1="792.3149" x2="792.3149" y1="60.9121" y2="378.8223"/><rect fill="#E4EBFA" height="32.6211" rx="5" ry="5" style="stroke:#066DFA;stroke-width:0.5;" width="49.793" x="35" y="27.291"/><text fill="#000000" font-family="sans-serif" font-size="14" lengthAdjust="spacing" textLength="35.793" x="42" y="49.3984">Client</text><rect fill="#E4EBFA" height="32.6211" rx="5" ry="5" style="stroke:#066DFA;stroke-width:0.5;" width="49.793" x="35" y="377.8223"/><text fill="#000000" font-family="sans-serif" font-size="14" lengthAdjust="spacing" textLength="35.793" x="42" y="399.9297">Client</text><rect fill="#E4EBFA" height="32.6211" rx="5" ry="5" style="stroke:#066DFA;stroke-width:0.5;" width="151.7305" x="178.9556" y="27.291"/><text fill="#000000" font-family="sans-serif" font-size="14" lengthAdjust="spacing" textLength="137.7305" x="185.9556" y="49.3984">Secure Token Service</text><rect fill="#E4EBFA" height="32.6211" rx="5" ry="5" style="stroke:#066DFA;stroke-width:0.5;" width="151.7305" x="178.9556" y="377.8223"/><text fill="#000000" font-family="sans-serif" font-size="14" lengthAdjust="spacing" textLength="137.7305" x="185.9556" y="399.9297">Secure Token Service</text><rect fill="#E4EBFA" height="32.6211" rx="5" ry="5" style="stroke:#066DFA;stroke-width:0.5;" width="88.6826" x="360.686" y="27.291"/><text fill="#000000" font-family="sans-serif" font-size="14" lengthAdjust="spacing" textLength="74.6826" x="367.686" y="49.3984">DID Service</text><rect fill="#E4EBFA" height="32.6211" rx="5" ry="5" style="stroke:#066DFA;stroke-width:0.5;" width="88.6826" x="360.686" y="377.8223"/><text fill="#000000" font-family="sans-serif" font-size="14" lengthAdjust="spacing" textLength="74.6826" x="367.686" y="399.9297">DID Service</text><rect fill="#E4EBFA" height="32.6211" rx="5" ry="5" style="stroke:#066DFA;stroke-width:0.5;" width="128.3857" x="479.3687" y="27.291"/><text fill="#000000" font-family="sans-serif" font-size="14" lengthAdjust="spacing" textLength="114.3857" x="486.3687" y="49.3984">Credential Service</text><rect fill="#E4EBFA" height="32.6211" rx="5" ry="5" style="stroke:#066DFA;stroke-width:0.5;" width="128.3857" x="479.3687" y="377.8223"/><text fill="#000000" font-family="sans-serif" font-size="14" lengthAdjust="spacing" textLength="114.3857" x="486.3687" y="399.9297">Credential Service</text><rect fill="#E4EBFA" height="32.6211" rx="5" ry="5" style="stroke:#066DFA;stroke-width:0.5;" width="102.6963" x="741.3149" y="27.291"/><text fill="#000000" font-family="sans-serif" font-size="14" lengthAdjust="spacing" textLength="88.6963" x="748.3149" y="49.3984">Issuer Service</text><rect fill="#E4EBFA" height="32.6211" rx="5" ry="5" style="stroke:#066DFA;stroke-width:0.5;" width="102.6963" x="741.3149" y="377.8223"/><text fill="#000000" font-family="sans-serif" font-size="14" lengthAdjust="spacing" textLength="88.6963" x="748.3149" y="399.9297">Issuer Service</text><polygon fill="#000000" points="242.8208,90.2031,252.8208,94.2031,242.8208,98.2031,246.8208,94.2031" style="stroke:#000000;stroke-width:1.0;"/><line style="stroke:#000000;stroke-width:1.0;" x1="59.8965" x2="248.8208" y1="94.2031" y2="94.2031"/><text fill="#000000" font-family="sans-serif" font-size="13" font-weight="bold" lengthAdjust="spacing" textLength="7.23" x="66.8965" y="88.9404">1</text><text fill="#000000" font-family="sans-serif" font-size="13" lengthAdjust="spacing" textLength="43.3608" x="78.1265" y="88.9404">request</text><polygon fill="#000000" points="70.8965,121.4941,60.8965,125.4941,70.8965,129.4941,66.8965,125.4941" style="stroke:#000000;stroke-width:1.0;"/><line style="stroke:#000000;stroke-width:1.0;" x1="64.8965" x2="253.8208" y1="125.4941" y2="125.4941"/><text fill="#000000" font-family="sans-serif" font-size="13" font-weight="bold" lengthAdjust="spacing" textLength="7.23" x="76.8965" y="120.2314">2</text><text fill="#000000" font-family="sans-serif" font-size="13" lengthAdjust="spacing" textLength="159.6943" x="88.1265" y="120.2314">response incl. access token</text><polygon fill="#000000" points="780.6631,152.7852,790.6631,156.7852,780.6631,160.7852,784.6631,156.7852" style="stroke:#000000;stroke-width:1.0;"/><line style="stroke:#000000;stroke-width:1.0;" x1="59.8965" x2="786.6631" y1="156.7852" y2="156.7852"/><text fill="#000000" font-family="sans-serif" font-size="13" font-weight="bold" lengthAdjust="spacing" textLength="7.23" x="66.8965" y="151.5225">3</text><text fill="#000000" font-family="sans-serif" font-size="13" lengthAdjust="spacing" textLength="359.0996" x="78.1265" y="151.5225">request credential(s) w/ self-issued ID token incl. access token</text><polygon fill="#000000" points="416.0273,184.0762,406.0273,188.0762,416.0273,192.0762,412.0273,188.0762" style="stroke:#000000;stroke-width:1.0;"/><line style="stroke:#000000;stroke-width:1.0;" x1="410.0273" x2="791.6631" y1="188.0762" y2="188.0762"/><text fill="#000000" font-family="sans-serif" font-size="13" font-weight="bold" lengthAdjust="spacing" textLength="7.23" x="422.0273" y="182.8135">4</text><text fill="#000000" font-family="sans-serif" font-size="13" lengthAdjust="spacing" textLength="67.9072" x="433.2573" y="182.8135">resolve DID</text><polygon fill="#000000" points="780.6631,215.3672,790.6631,219.3672,780.6631,223.3672,784.6631,219.3672" style="stroke:#000000;stroke-width:1.0;"/><line style="stroke:#000000;stroke-width:1.0;" x1="405.0273" x2="786.6631" y1="219.3672" y2="219.3672"/><text fill="#000000" font-family="sans-serif" font-size="13" font-weight="bold" lengthAdjust="spacing" textLength="7.23" x="412.0273" y="214.1045">5</text><text fill="#000000" font-family="sans-serif" font-size="13" lengthAdjust="spacing" textLength="140.1816" x="423.2573" y="214.1045">DID document response</text><polygon fill="#000000" points="70.8965,246.6582,60.8965,250.6582,70.8965,254.6582,66.8965,250.6582" style="stroke:#000000;stroke-width:1.0;"/><line style="stroke:#000000;stroke-width:1.0;" x1="64.8965" x2="791.6631" y1="250.6582" y2="250.6582"/><text fill="#000000" font-family="sans-serif" font-size="13" font-weight="bold" lengthAdjust="spacing" textLength="7.23" x="76.8965" y="245.3955">6</text><text fill="#000000" font-family="sans-serif" font-size="13" lengthAdjust="spacing" textLength="20.23" x="88.1265" y="245.3955">ack</text><polygon fill="#000000" points="554.5615,295.2402,544.5615,299.2402,554.5615,303.2402,550.5615,299.2402" style="stroke:#000000;stroke-width:1.0;"/><line style="stroke:#000000;stroke-width:1.0;" x1="548.5615" x2="791.6631" y1="299.2402" y2="299.2402"/><text fill="#000000" font-family="sans-serif" font-size="13" font-weight="bold" lengthAdjust="spacing" textLength="7.23" x="560.5615" y="285.332">7</text><text fill="#000000" font-family="sans-serif" font-size="13" lengthAdjust="spacing" textLength="148.8145" x="571.7915" y="276.6865">(async) write credential(s)</text><text fill="#000000" font-family="sans-serif" font-size="13" lengthAdjust="spacing" textLength="210.2598" x="575.4033" y="293.9775">w/ self-issued ID token access token</text><line style="stroke:#000000;stroke-width:1.0;" x1="543.5615" x2="585.5615" y1="347.8223" y2="347.8223"/><line style="stroke:#000000;stroke-width:1.0;" x1="585.5615" x2="585.5615" y1="347.8223" y2="360.8223"/><line style="stroke:#000000;stroke-width:1.0;" x1="544.5615" x2="585.5615" y1="360.8223" y2="360.8223"/><polygon fill="#000000" points="554.5615,356.8223,544.5615,360.8223,554.5615,364.8223,550.5615,360.8223" style="stroke:#000000;stroke-width:1.0;"/><text fill="#000000" font-family="sans-serif" font-size="13" font-weight="bold" lengthAdjust="spacing" textLength="7.23" x="550.5615" y="333.9141">8</text><text fill="#000000" font-family="sans-serif" font-size="13" lengthAdjust="spacing" textLength="107.6943" x="561.7915" y="325.2686">Validate token and</text><text fill="#000000" font-family="sans-serif" font-size="13" lengthAdjust="spacing" textLength="95.3799" x="565.4033" y="342.5596">store credentials</text><!--SRC=[TL6zKiCm3Dxz56gcCZJi7CVYC6HEZub5jKNFLyTEBRkGjyTkJMcuCbhwVkNL570_8bYSVOh08qLqACJAE6MJ9j06zm77bkDiYTifZLO8JD6xDEue2B7pNz18QyX5U7NHnBaH4uPeb9amp-gk0MIGoyr0AWM2hJ-GWu72oIWwuuRji4HsVRS0T7_sCf3E9WRj0YO7GKv3ZbXpzio9mlsSTNVBxs_u4ZOl9TWJ13ecuYZoeynacV3a7HEKgxM0IX4pnDBhmkj_QQ2kMTVy09-Fm6G_DgQuQyWzpxHxIjq0pvignTwU2F9PohGQb2Dfhz9Olk8dKlQl95G78QyIQ-JPgUmVJAHbfdVtRwfbiqlzBFQ6rcZCEXNbTDRWwCEjCejl]--></g></svg>